<svg width="225" height="59.666666666666664" viewBox="0 0 208.5878350542405 45.361369638385185" class="css-1j8o68f"><defs id="SvgjsDefs1182"><linearGradient id="SvgjsLinearGradient1187"><stop id="SvgjsStop1188" stop-color="#8f5e25" offset="0"></stop><stop id="SvgjsStop1189" stop-color="#fbf4a1" offset="0.5"></stop><stop id="SvgjsStop1190" stop-color="#8f5e25" offset="1"></stop></linearGradient><linearGradient id="SvgjsLinearGradient1191"><stop id="SvgjsStop1192" stop-color="#8f5e25" offset="0"></stop><stop id="SvgjsStop1193" stop-color="#fbf4a1" offset="0.5"></stop><stop id="SvgjsStop1194" stop-color="#8f5e25" offset="1"></stop></linearGradient></defs><g id="SvgjsG1183" featurekey="G09qjj-0" transform="matrix(0.9481941517676077,0,0,0.9481941517676077,-11.27047230239889,-19.988169565242988)" fill="url(#SvgjsLinearGradient1187)"><path xmlns="http://www.w3.org/2000/svg" d="M39.343,68.335c-0.781,0.78-2.047,0.78-2.829,0l-5.657-5.657c-0.781-0.781-0.781-2.048,0-2.828l38.184-38.184  c0.78-0.781,2.047-0.781,2.828,0l5.657,5.657c0.78,0.781,0.78,2.047,0,2.829L39.343,68.335z"></path><path xmlns="http://www.w3.org/2000/svg" d="M29.444,58.436l7.071-7.071L20.958,35.808c-0.781-0.781-2.047-0.781-2.829,0l-5.657,5.657c-0.781,0.78-0.781,2.047,0,2.828  L28.42,60.24C28.599,59.565,28.937,58.941,29.444,58.436z"></path></g><g id="SvgjsG1184" featurekey="0yvIkK-0" transform="matrix(1.3417502870175926,0,0,1.3417502870175926,82.67798087801444,5.647210320940919)" fill="url(#SvgjsLinearGradient1191)"><path d="M11.24 5.84 l0 1.2 l-4.84 0 l0 12.96 l-1.32 0 l0 -12.96 l-4.84 0 l0 -1.2 l11 0 z M13.82 12.92 q0 2.7 1.66 4.45 t4.34 1.79 q2.7 0 4.34 -1.77 t1.66 -4.47 q0 -2.74 -1.64 -4.47 t-4.38 -1.77 q-2.68 0 -4.32 1.76 t-1.66 4.48 z M19.82 5.48 q2.16 0 3.82 0.95 t2.57 2.66 t0.93 3.83 q0 3.26 -2.06 5.33 t-5.26 2.11 q-3.22 0 -5.24 -2.09 t-2.08 -5.35 q0.02 -3.26 2.04 -5.32 t5.28 -2.12 z M34.06 18.8 q3.04 0 4.8 -1.54 t1.78 -4.24 q0 -2.88 -1.75 -4.42 t-4.89 -1.56 l-2.76 0 l0 11.76 l2.82 0 z M34.34 5.84 q3.56 0 5.57 1.92 t2.05 5.26 q0 1.96 -0.89 3.55 t-2.56 2.51 t-4.09 0.92 l-4.5 0 l0 -14.16 l4.42 0 z M45.32000000000001 12.92 q0 2.7 1.66 4.45 t4.34 1.79 q2.7 0 4.34 -1.77 t1.66 -4.47 q0 -2.74 -1.64 -4.47 t-4.38 -1.77 q-2.68 0 -4.32 1.76 t-1.66 4.48 z M51.32000000000001 5.48 q2.16 0 3.82 0.95 t2.57 2.66 t0.93 3.83 q0 3.26 -2.06 5.33 t-5.26 2.11 q-3.22 0 -5.24 -2.09 t-2.08 -5.35 q0.02 -3.26 2.04 -5.32 t5.28 -2.12 z M65.64 5.48 q2.46 0 3.86 1.78 l-1.14 0.82 q-1.04 -1.4 -2.76 -1.4 q-1.4 0 -2.27 0.72 t-0.91 1.96 q0 1.08 0.66 1.75 t2.3 1.13 q2.16 0.64 2.88 1.13 t1.09 1.21 t0.37 1.8 q0 1.72 -1.23 2.83 t-3.17 1.15 q-3.06 0 -4.6 -2.14 l1.26 -0.84 q1.06 1.76 3.24 1.78 q1.42 0 2.3 -0.79 t0.88 -1.99 q0 -0.7 -0.25 -1.15 t-0.76 -0.78 t-1.3 -0.6 t-1.85 -0.63 q-1.6 -0.52 -2.37 -1.46 t-0.77 -2.4 q0 -1.72 1.29 -2.8 t3.25 -1.08 z M81.38 5.84 l0 1.2 l-7.34 0 l0 5.04 l6.88 0 l0 1.2 l-6.88 0 l0 5.52 l7.66 0 l0 1.2 l-8.98 0 l0 -14.16 l8.66 0 z M88.8 12.08 q1.54 0 2.38 -0.69 t0.84 -1.83 t-0.82 -1.82 t-2.44 -0.7 l-2.86 0 l0 5.04 l2.9 0 z M88.4 5.84 q4.9 0 4.94 3.72 q0 3.14 -3.62 3.64 l4.12 6.8 l-1.5 0 l-3.98 -6.72 l-2.46 0 l0 6.72 l-1.32 0 l0 -14.16 l3.82 0 z"></path></g></svg>