<svg width="225" height="59.666666666666664" viewBox="0 0 320 93.62028839504198" class="css-1j8o68f"><defs id="SvgjsDefs1342"></defs><g id="SvgjsG1343" featurekey="symbolFeature-0" transform="matrix(1.1111131832962065,0,0,1.1111131832962065,-5.556107922395011,-8.746577256495128)" fill="#111111"><g xmlns="http://www.w3.org/2000/svg"><path fill="#111111" d="M94.994,48.659c-0.063-0.849-0.561-1.607-1.367-2.08l-2.613-1.536l-2.475,1.985l3.182,1.87L41.745,88.991   c-0.108,0.087-0.345,0.174-0.632,0.174c-0.212,0-0.371-0.049-0.45-0.096L8.28,70.05l3.313-2.657l-2.735-1.606l-2.8,2.246   c-0.729,0.586-1.111,1.407-1.051,2.256c0.062,0.849,0.56,1.606,1.366,2.08l32.789,19.257c0.562,0.329,1.236,0.504,1.951,0.504   c0.926,0,1.832-0.301,2.486-0.826l50.344-40.389C94.672,50.33,95.055,49.507,94.994,48.659z"></path><g><path fill="#111111" d="M60.824,67.361l-19.08,15.307c-0.108,0.087-0.345,0.175-0.632,0.175c-0.212,0-0.371-0.05-0.45-0.096    L8.28,63.728l3.313-2.657l-2.735-1.606l-2.8,2.246c-0.729,0.585-1.111,1.407-1.051,2.256c0.062,0.848,0.56,1.606,1.366,2.08    l32.789,19.256c0.562,0.33,1.236,0.505,1.951,0.505c0.926,0,1.832-0.302,2.486-0.826l17.225-13.819V67.361z"></path><path fill="#111111" d="M94.994,42.336c-0.063-0.849-0.561-1.606-1.367-2.08l-2.613-1.536l-2.475,1.985l3.182,1.869L75.172,55.853    v3.799l18.771-15.059C94.672,44.007,95.055,43.185,94.994,42.336z"></path></g><g><path fill="#111111" d="M41.113,73.161c-0.715,0-1.39-0.174-1.951-0.504L6.373,53.4c-0.806-0.473-1.304-1.231-1.366-2.079    c-0.062-0.849,0.321-1.671,1.051-2.256L56.402,8.678c1.158-0.93,3.148-1.079,4.436-0.323l32.789,19.256    c0.807,0.474,1.305,1.231,1.367,2.08c0.061,0.848-0.322,1.67-1.051,2.255L43.599,72.335C42.945,72.86,42.039,73.161,41.113,73.161    z M8.279,51.082l32.384,19.02c0.079,0.047,0.238,0.096,0.45,0.096c0.287,0,0.523-0.087,0.632-0.174L91.721,29.93l-32.383-19.02    c-0.078-0.046-0.238-0.096-0.451-0.096c-0.285,0-0.521,0.087-0.631,0.174L8.279,51.082z"></path></g><g><path fill="#111111" d="M47.897,29.089c3.812,0.572,7.794,1.917,11.345,4.002c3.551,2.085,6.102,4.579,7.516,7.075l4.533,2.662    l12.523-10.046c-2.863-1.68-3.482-4.404-1.389-6.084L64.859,16.381c-2.096,1.68-6.113,1.681-8.973,0L43.364,26.427L47.897,29.089z    "></path><path fill="#111111" d="M53.059,52.055c-4.095-0.479-8.454-1.874-12.301-4.133c-3.849-2.26-6.531-5-7.854-7.703l-3.886-2.282    L16.187,48.23c2.86,1.68,3.481,4.405,1.388,6.084l17.566,10.316c2.094-1.681,6.111-1.681,8.972-0.001l12.833-10.293L53.059,52.055    z"></path></g><g><path fill="#111111" d="M60.824,61.039l-19.08,15.307c-0.108,0.087-0.345,0.174-0.632,0.174c-0.212,0-0.371-0.049-0.45-0.095    L8.279,57.404l3.313-2.657l-2.734-1.605l-2.8,2.246c-0.729,0.585-1.112,1.407-1.051,2.256c0.063,0.849,0.561,1.606,1.366,2.08    l32.789,19.256c0.562,0.33,1.236,0.504,1.951,0.504c0.926,0,1.832-0.301,2.486-0.826l17.225-13.819V61.039z"></path><path fill="#111111" d="M94.994,36.014c-0.063-0.848-0.561-1.606-1.367-2.08l-2.613-1.536l-2.475,1.985l3.182,1.869L75.172,49.53    v3.799l18.771-15.06C94.672,37.685,95.055,36.862,94.994,36.014z"></path></g><path fill="#111111" d="M75.041,43.312L39.354,22.354L22.535,35.847l36.809,21.617v21.208l17.309-13.887V45.818L75.041,43.312z    M39.615,25.944l32.952,19.353l-8.191,6.572l-3.68,2.953L27.742,35.469L39.615,25.944z M73.689,63.363l-11.383,9.132V57.327   L70,51.155l3.689-2.959V63.363z"></path></g></g><g id="SvgjsG1344" featurekey="nameFeature-0" transform="matrix(0.8901247507067341,0,0,0.8901247507067341,119.00893384484901,24.534076684024527)" fill="#111111"><path d="M8.3008 33.0859 c-1.9531 -1.9531 -2.9297 -4.31 -2.9297 -7.0703 s0.97656 -5.1172 2.9297 -7.0703 c1.9531 -1.9662 4.31 -2.9492 7.0703 -2.9492 c1.6927 0 3.2748 0.40365 4.7461 1.2109 l0 -4.6484 c-1.5365 -0.53385 -3.1186 -0.80078 -4.7461 -0.80078 c-3.9322 0 -7.2916 1.3932 -10.078 4.1797 s-4.1797 6.1459 -4.1797 10.078 s1.3932 7.2916 4.1797 10.078 s6.1459 4.1797 10.078 4.1797 c1.6276 0 3.2096 -0.27344 4.7461 -0.82031 l0 -4.6289 c-1.4713 0.79428 -3.0533 1.1914 -4.7461 1.1914 c-2.7604 0 -5.1172 -0.97656 -7.0703 -2.9297 z M29.3359625 18.945 c-1.9531 1.9531 -2.9297 4.31 -2.9297 7.0703 s0.97656 5.1172 2.9297 7.0703 s4.31 2.9297 7.0703 2.9297 s5.1172 -0.97656 7.0703 -2.9297 s2.9297 -4.31 2.9297 -7.0703 s-0.97656 -5.1172 -2.9297 -7.0703 s-4.31 -2.9297 -7.0703 -2.9297 s-5.1172 0.97656 -7.0703 2.9297 z M26.3281625 36.0937 c-2.7865 -2.7865 -4.1797 -6.1459 -4.1797 -10.078 s1.3932 -7.2916 4.1797 -10.078 s6.1459 -4.1797 10.078 -4.1797 s7.2916 1.3932 10.078 4.1797 s4.1797 6.1459 4.1797 10.078 s-1.3932 7.2916 -4.1797 10.078 s-6.1459 4.1797 -10.078 4.1797 s-7.2916 -1.3932 -10.078 -4.1797 z M58.2226625 12.09 l-4.2383 0 l0 27.91 l4.2383 0 l0 -27.91 z M78.9458125 12.050999999999998 l0 19.98 l-11.934 -19.98 l-4.4336 0 l0 27.949 l4.2383 0 l0 -19.98 l11.953 19.98 l4.4336 0 l0 -27.949 l-4.2578 0 z M87.6172375 12.050999999999998 l0 27.949 l4.2383 0 l0 -11.895 l7.7344 0 l0 -4.2383 l-7.7344 0 l0 -7.5781 l10.02 0 l0 -4.2383 l-14.258 0 z M105.2734875 12.050999999999998 l0 27.949 l14.258 0 l0 -4.2383 l-10.02 0 l0 -23.711 l-4.2383 0 z M126.0547375 37.3437 c-1.9401 -1.9401 -2.9102 -4.2838 -2.9102 -7.0313 l0 -18.281 l4.2578 0 l0 18.281 c0 1.5755 0.55338 2.9166 1.6602 4.0234 c1.1198 1.1198 2.4609 1.6797 4.0234 1.6797 c1.5755 0 2.9166 -0.5599 4.0234 -1.6797 c1.1198 -1.1068 1.6797 -2.4479 1.6797 -4.0234 l0 -18.281 l4.2578 0 l0 18.281 c0 2.7475 -0.97656 5.0912 -2.9297 7.0313 c-1.9401 1.9401 -4.2838 2.9102 -7.0313 2.9102 c-2.7344 0 -5.0781 -0.97006 -7.0313 -2.9102 z M147.83208125 12.050999999999998 l0 27.949 l14.258 0 l0 -4.2383 l-10.02 0 l0 -7.6563 l7.7344 0 l0 -4.2383 l-7.7344 0 l0 -7.5781 l10.02 0 l0 -4.2383 l-14.258 0 z M181.58253125 12.050999999999998 l0 19.98 l-11.934 -19.98 l-4.4336 0 l0 27.949 l4.2383 0 l0 -19.98 l11.953 19.98 l4.4336 0 l0 -27.949 l-4.2578 0 z M196.21095625 33.0859 c-1.9531 -1.9531 -2.9297 -4.31 -2.9297 -7.0703 s0.97656 -5.1172 2.9297 -7.0703 c1.9531 -1.9662 4.31 -2.9492 7.0703 -2.9492 c1.6927 0 3.2748 0.40365 4.7461 1.2109 l0 -4.6484 c-1.5365 -0.53385 -3.1186 -0.80078 -4.7461 -0.80078 c-3.9322 0 -7.2916 1.3932 -10.078 4.1797 s-4.1797 6.1459 -4.1797 10.078 s1.3932 7.2916 4.1797 10.078 s6.1459 4.1797 10.078 4.1797 c1.6276 0 3.2096 -0.27344 4.7461 -0.82031 l0 -4.6289 c-1.4713 0.79428 -3.0533 1.1914 -4.7461 1.1914 c-2.7604 0 -5.1172 -0.97656 -7.0703 -2.9297 z M211.54301875 12.050999999999998 l0 27.949 l14.258 0 l0 -4.2383 l-10.02 0 l0 -7.6563 l7.7344 0 l0 -4.2383 l-7.7344 0 l0 -7.5781 l10.02 0 l0 -4.2383 l-14.258 0 z"></path></g></svg>