<svg width="225" height="59.666666666666664" viewBox="0 0 390.60137703489903 72.8" class="css-1j8o68f"><defs id="SvgjsDefs1186"></defs><g id="SvgjsG1187" featurekey="symbolContainer" transform="matrix(1.456,0,0,1.456,0,0)" fill="#ffffff"><circle cx="25" cy="25" r="25"></circle></g><g id="SvgjsG1188" featurekey="symbolFeature-0" transform="matrix(0.8956187410494034,0,0,0.8956187410494034,7.349413493324342,6.876605223649374)" fill="#17b978"><title xmlns="http://www.w3.org/2000/svg">Art</title><path xmlns="http://www.w3.org/2000/svg" d="M60.88,9.48,58.66,7.36A1.88,1.88,0,0,0,56.4,7.1C45.35,13.69,33.88,29.27,31.58,32.5a1.32,1.32,0,0,0-.67.4l-1.62,1.85L19.33,46c-1.23.06-3.76.76-6.66,4.89S5,53.58,4.44,53.4a1.15,1.15,0,0,0-1.3,1.72h0A11.56,11.56,0,0,0,12.83,60,17.14,17.14,0,0,0,18,59.11l.08,0c.27-.11,6.42-2.65,6.89-7.59l12-11.91h0l.52-.52a1.32,1.32,0,0,0,.37-.77C41,35.62,55.56,23.11,61.27,11.67A1.87,1.87,0,0,0,60.88,9.48ZM34.72,38.58a9.5,9.5,0,0,1-3.19-2.93l.13-.15a8.6,8.6,0,0,0,3.26,2.88ZM17.24,57a17.07,17.07,0,0,1-1.78.45,8.36,8.36,0,0,0,2.35-1.8.76.76,0,1,0-1.13-1c-2.09,2.33-5.35,2.61-7.14,2.56a9.3,9.3,0,0,1-2.27-1.11,8.71,8.71,0,0,0,7.24-3.83c2-2.83,3.6-3.63,4.43-3.85a5,5,0,0,0,.2.5,7.42,7.42,0,0,1-2.23,1.58.76.76,0,1,0,.63,1.37A8.94,8.94,0,0,0,20,50.16a6.56,6.56,0,0,0,2.6,1.65C21.89,54.9,17.67,56.78,17.24,57Zm6.28-7.25a3.86,3.86,0,0,1-2.43-2.24L30,37.4c.13.17.28.36.44.54L24.5,44.46a.76.76,0,1,0,1.12,1L31.49,39a11,11,0,0,0,1.57,1.21ZM36.34,36.57a6.32,6.32,0,0,1-3-2.69C35.49,30.94,46.77,15.62,57.3,9.2l1.8,1.72C53.54,21.81,39.28,34.1,36.34,36.57Z"></path></g><g id="SvgjsG1189" featurekey="nameFeature-0" transform="matrix(1.8104201566456593,0,0,1.8104201566456593,87.57842461904913,-8.593440693777751)" fill="#ffffff"><path d="M5.16 33.28 c-1.4 -0.04 -1.64 -0.32 -1.68 -1.88 l-0.12 -3.48 l-0.36 -13.24 c-0.04 -1.36 0.12 -1.48 1.32 -1.6 c0.8 -0.12 1.6 -0.24 2.36 -0.32 c1.2 -0.08 1.48 0.24 1.4 1.56 l0 0.4 c1.04 -0.52 2.04 -1.16 3.12 -1.52 c3.52 -1.2 6.4 0.76 7.12 4.8 c0.28 1.56 0.32 3.08 -0.16 4.64 c-0.64 2 -1.88 3.12 -3.76 3.4 c-2.08 0.32 -4 0 -5.68 -1.56 c-0.12 -0.12 -0.28 -0.2 -0.44 -0.32 c0 2.84 -0.08 3.24 -0.04 6 l0 1.6 c-0.04 1.12 -0.36 1.48 -1.32 1.52 c-0.6 0.04 -1.16 0.04 -1.76 0 z M5.96 32.08 c1.12 0.04 1.16 0 1.12 -1.24 l-0.12 -16.4 c0 -0.08 -0.04 -0.2 -0.08 -0.4 l-1.88 0.2 c-0.88 0.08 -0.92 0.12 -0.88 1.12 l0.44 14.2 c0.04 1.56 0.04 0.8 0.12 2.4 c0.44 0.04 0.84 0.12 1.28 0.12 z M13.72 24.92 c2.16 -0.24 3.2 -1.32 3.6 -3.72 c0.28 -1.6 0 -3.16 -0.6 -4.64 c-0.56 -1.4 -1.6 -2.12 -2.92 -2.36 c-1.44 -0.24 -2.76 0.24 -4.04 1 c-1.2 0.72 -2 1.68 -1.76 3.12 c0.08 1.36 0.12 2.48 0.16 3.6 c0.04 0.2 0.08 0.48 0.2 0.64 c1.52 1.56 3.2 2.6 5.36 2.36 z M29.642 33.6 c-0.4 0.04 -0.92 0.04 -1.28 -0.16 c-0.24 -0.12 -0.28 -0.56 -0.08 -0.76 c0.12 -0.12 0.28 -0.12 0.4 -0.12 c0.64 -0.04 1.24 -0.08 1.84 -0.08 c0.36 0.04 0.52 -0.12 0.52 -0.52 c-0.08 -3.76 -0.08 -6.6 -0.12 -10.4 c-0.04 -2.36 -0.04 -4.72 0 -7.12 c0 -0.64 -0.24 -0.88 -0.88 -0.88 c-0.56 0.04 -1.08 0 -1.64 -0.04 c-0.4 0 -0.8 -0.04 -0.8 -0.56 s0.44 -0.52 0.8 -0.52 c1.28 0 2.56 0.12 3.8 0.08 c1.84 -0.08 3.72 -0.24 5.56 -0.32 c0.44 -0.04 1.08 -0.12 1.08 0.56 c0 0.6 -0.6 0.52 -1.04 0.56 l-1.8 0.12 c0 6.56 -0.04 12.12 -0.04 18.68 l1.64 -0.12 c0.36 0 1.08 -0.24 1.32 0.16 c0.12 0.2 0.12 0.44 0.08 0.64 c-0.12 0.52 -1 0.28 -1.4 0.32 l-2.68 0.16 c-1.76 0.12 -3.52 0.2 -5.28 0.32 z M32.202 31.96 l2.64 0 c-0.16 -6.48 0.28 -11.88 -0.12 -18.28 l-2.68 0 l0 2 c0 5.44 0 9.96 0.04 15.4 c0 0.32 0.08 0.64 0.12 0.88 z M52.083999999999996 33.64 c-2.24 0.16 -2.52 -0.12 -2.6 -2.32 c-0.12 -3.32 -0.28 -6.64 -0.36 -9.96 c-0.04 -2.48 0 -4.96 0.04 -7.44 c0 -1 0.28 -1.2 1.28 -1.16 c0.84 0.04 1.72 0.12 2.6 0.08 c0.72 0 1.16 0.36 1.48 0.96 c1.36 2.24 2.68 4.52 4.08 6.76 c2 3.16 4.08 6.24 6.12 9.36 c0.04 0.08 0.04 0.16 0.04 0.2 l0.24 -0.08 c-0.08 -1.48 -0.16 -3 -0.2 -4.48 c-0.12 -2.96 -0.32 -5.92 -0.36 -8.84 c0 -1 0.24 -1.96 0.48 -2.92 c0.2 -0.72 0.72 -1.32 1.48 -1.68 c0.84 -0.4 1.68 -0.16 2.12 0.56 c0.56 0.88 0.44 1.88 -0.36 2.4 c-0.36 0.24 -0.72 0.36 -1.08 0.56 c-1 0.52 -1.6 1.28 -1.52 2.48 c0.2 4.4 0.36 8.8 0.52 13.2 c0.04 0.28 0.04 0.6 -0.04 0.88 c-0.04 0.2 -0.2 0.44 -0.4 0.48 s-0.48 -0.04 -0.68 -0.16 c-0.16 -0.08 -0.2 -0.24 -0.28 -0.4 l-6 -9.44 c-1.24 -1.96 -2.48 -3.96 -3.72 -5.96 l-0.52 -0.8 c0 0.36 -0.04 0.56 0 0.76 c0.04 4.76 0.12 9.52 0.16 14.32 c0.04 2.32 -0.2 2.52 -2.52 2.64 z M65.844 15.04 l1.44 -0.72 c0.48 -0.24 0.56 -0.64 0.28 -1 c-0.32 -0.48 -0.76 -0.28 -1 0.04 c-0.36 0.44 -0.6 1 -0.92 1.52 z M52.403999999999996 32.519999999999996 c1.04 -0.08 1.08 -0.12 1.04 -1.12 l-0.2 -16.28 c0 -0.36 -0.08 -0.76 -0.12 -1.16 l-2.8 0 c0 0.24 -0.08 0.48 -0.08 0.68 c0.12 5.48 0.2 10.92 0.32 16.36 c0.04 1.68 0.12 1.68 1.84 1.52 z M86.686 33.72 c-0.52 0 -1 0 -1.52 -0.04 c-0.88 -0.08 -1.24 -0.44 -1.28 -1.36 c-0.04 -1.48 -0.08 -2.92 -0.16 -4.4 l-0.56 -11.04 c-0.08 -0.88 -0.04 -1.76 -0.04 -2.72 c-1.04 -0.04 -2.04 -0.12 -3.08 -0.16 l-2.28 0 c-0.36 0 -0.76 -0.04 -0.76 -0.56 c0 -0.48 0.4 -0.56 0.8 -0.56 c1.88 0.04 3.76 0.08 5.64 0.08 c3.24 -0.04 6.48 -0.08 9.72 -0.16 c0.2 0 0.48 -0.04 0.6 0.08 c0.24 0.16 0.48 0.44 0.52 0.72 c0.04 0.4 -0.36 0.36 -0.64 0.36 l-5.52 0.12 c0.08 1.84 0.2 3.56 0.28 5.24 c0.12 4.08 0.24 8.12 0.32 12.16 c0.04 2.16 -0.32 2.2 -2.04 2.24 z M85.126 32.56 l2.52 0 c-0.04 -6.24 -0.2 -12.36 -0.64 -18.52 l-2.68 0 c-0.16 1.4 0.52 17.56 0.8 18.52 z M122.80799999999999 35.24 c0.44 0.28 0.72 0.72 0.52 1.28 c-0.2 0.52 -0.64 0.84 -1.24 0.8 c-0.44 -0.08 -0.92 -0.2 -1.28 -0.44 c-1.12 -0.76 -1.92 -1.84 -2.32 -3.08 c-0.6 -1.76 -1.44 -4.96 -1.96 -6.72 c-0.08 -0.28 -0.16 -0.52 -0.2 -0.76 c-1.96 0.36 -3.76 0.72 -5.6 1 c-0.4 0.08 -0.56 0.28 -0.72 0.64 l-2.08 4.96 c-0.76 1.84 -0.88 1.92 -2.72 1.24 c-0.4 -0.16 -0.8 -0.28 -1.16 -0.48 c-0.72 -0.36 -0.84 -0.76 -0.52 -1.52 c1.24 -3.04 2.52 -6.04 3.76 -9.08 c1.28 -3.2 2.52 -6.4 3.76 -9.64 c0.36 -0.92 0.44 -1 1.4 -0.68 c0.8 0.24 1.56 0.52 2.28 0.88 c0.28 0.16 0.56 0.52 0.6 0.8 c0.28 3.68 1.04 7.24 1.88 10.8 c0.44 1.88 1 3.76 1.48 5.64 c0.28 0.96 1.24 3.12 2.28 3.44 c0.64 0.2 1.24 0.56 1.84 0.92 z M106.52799999999999 33.480000000000004 c2.32 -6.44 5.88 -12.28 7.56 -18.96 l-1.92 -0.76 c-2.56 6.36 -5.08 12.64 -7.6 18.96 z M110.88799999999999 26.240000000000002 c1.76 -0.32 3.44 -0.68 5.12 -1 l-1.52 -7.8 c-1.2 2.92 -2.36 5.8 -3.6 8.8 z M122.24799999999999 36.6 c0.44 -0.04 0.44 -0.68 0.12 -0.88 c-0.4 -0.32 -0.92 -0.28 -1.4 -0.32 c-0.08 0 -0.4 -0.08 -0.44 0 s0.16 0.2 0.52 0.56 c0.16 0.16 0.28 0.36 0.44 0.48 c0.2 0.12 0.52 0.2 0.76 0.16 z M132.45 33.6 c-0.4 0.04 -0.92 0.04 -1.28 -0.16 c-0.24 -0.12 -0.28 -0.56 -0.08 -0.76 c0.12 -0.12 0.28 -0.12 0.4 -0.12 c0.64 -0.04 1.24 -0.08 1.84 -0.08 c0.36 0.04 0.52 -0.12 0.52 -0.52 c-0.08 -3.76 -0.08 -6.6 -0.12 -10.4 c-0.04 -2.36 -0.04 -4.72 0 -7.12 c0 -0.64 -0.24 -0.88 -0.88 -0.88 c-0.56 0.04 -1.08 0 -1.64 -0.04 c-0.4 0 -0.8 -0.04 -0.8 -0.56 s0.44 -0.52 0.8 -0.52 c1.28 0 2.56 0.12 3.8 0.08 c1.84 -0.08 3.72 -0.24 5.56 -0.32 c0.44 -0.04 1.08 -0.12 1.08 0.56 c0 0.6 -0.6 0.52 -1.04 0.56 l-1.8 0.12 c0 6.56 -0.04 12.12 -0.04 18.68 l1.64 -0.12 c0.36 0 1.08 -0.24 1.32 0.16 c0.12 0.2 0.12 0.44 0.08 0.64 c-0.12 0.52 -1 0.28 -1.4 0.32 l-2.68 0.16 c-1.76 0.12 -3.52 0.2 -5.28 0.32 z M135.01 31.96 l2.64 0 c-0.16 -6.48 0.28 -11.88 -0.12 -18.28 l-2.68 0 l0 2 c0 5.44 0 9.96 0.04 15.4 c0 0.32 0.08 0.64 0.12 0.88 z M155.332 33.92 c-2.56 -0.08 -2.72 -0.16 -2.84 -2.72 c-0.12 -3.68 -0.2 -7.32 -0.32 -11 c-0.04 -1.96 -0.2 -3.88 -0.24 -5.84 c-0.04 -1.08 0.12 -1.28 1.2 -1.32 c0.8 -0.04 1.64 -0.04 2.44 0 c0.92 0.08 1.16 0.36 1.16 1.28 l0.28 18.12 c0 0.08 0.04 0.16 0.04 0.2 c1.92 0 3.8 0 5.68 -0.04 c0.24 0 0.52 -0.16 0.64 -0.36 c0.36 -0.36 0.6 -0.8 0.88 -1.2 c0.2 -0.36 0.32 -0.72 0.52 -1.08 c0.52 -0.84 1.16 -1.12 1.84 -0.8 c0.64 0.28 0.92 1.08 0.68 1.92 c-0.2 0.8 -0.64 1.48 -1.4 1.84 c-0.84 0.4 -1.76 0.8 -2.64 0.84 c-2.64 0.16 -5.28 0.24 -7.92 0.16 z M154.09199999999998 32.68 c1.24 0.48 1.76 0.12 1.8 -1.12 l0.04 -0.48 c-0.12 -5.52 -0.2 -11 -0.28 -16.48 c0 -0.12 -0.08 -0.24 -0.12 -0.4 l-2.44 0 c0 0.76 -0.04 1.4 0 2.08 l0.44 14 c0.04 0.6 0.08 1.2 0.2 1.8 c0 0.24 0.2 0.52 0.36 0.6 z M165.052 31.96 c0.2 0.12 0.92 -0.32 1.04 -0.48 s0.16 -0.36 0.2 -0.6 c0 -0.16 0 -0.32 -0.04 -0.48 c-0.2 -0.44 -0.68 -0.2 -0.92 0.08 c-0.24 0.32 -0.32 0.76 -0.36 1.16 c-0.04 0.2 0 0.32 0.08 0.32 z"></path></g></svg>