<svg width="225" height="59.666666666666664" viewBox="0 0 225 59.666666666666664" class="css-1j8o68f"><defs id="SvgjsDefs1429"><linearGradient id="SvgjsLinearGradient1434"><stop id="SvgjsStop1435" stop-color="#00ff8f" offset="0"></stop><stop id="SvgjsStop1436" stop-color="#00a1ff" offset="1"></stop></linearGradient><linearGradient id="SvgjsLinearGradient1437"><stop id="SvgjsStop1438" stop-color="#00ff8f" offset="0"></stop><stop id="SvgjsStop1439" stop-color="#00a1ff" offset="1"></stop></linearGradient></defs><g id="SvgjsG1430" featurekey="xG21Y3-0" transform="matrix(0.2833333333333333,0,0,0.2833333333333333,15.183333333333334,-7.483333333333334)" fill="url(#SvgjsLinearGradient1434)"><defs xmlns="http://www.w3.org/2000/svg"></defs><g xmlns="http://www.w3.org/2000/svg"><path class="fil0" d="M56 188l39 -33 27 -39 17 1 19 -20 14 11 34 26 9 6 13 25 25 13 14 -2 17 18 33 42 -300 1 24 -39 15 -10zm69 -65l0 -1 16 1 -13 22 0 10 11 16 -20 -7 -6 -7 7 -12 5 -8 0 -7 0 -7zm33 -18l1 0 9 7 35 27 8 5 12 26 30 15 12 -3 15 16 25 32 -103 1 -10 -18 26 -2 -5 -20 -9 -3 -15 9 -30 -13 -9 5 -18 2 24 -19 5 -9 16 2 -4 -11 -9 -13 14 2 -13 -21 -7 -4 0 -13z" style="fill: url(#SvgjsLinearGradient1434);"></path></g></g><g id="SvgjsG1431" featurekey="n48U4P-0" transform="matrix(1.1407712129336607,0,0,1.1407712129336607,124.93155433646153,25.862650743866002)" fill="url(#SvgjsLinearGradient1437)"><path d="M3.2 5.720000000000001 l2.26 9.72 l0.04 0 l2.48 -9.72 l2.94 0 l2.44 9.84 l0.04 0 l2.34 -9.84 l3.08 0 l-3.84 14.28 l-3.12 0 l-2.42 -9.72 l-0.04 0 l-2.38 9.72 l-3.18 0 l-3.78 -14.28 l3.14 0 z M23.4 5.720000000000001 l0 14.28 l-3.14 0 l0 -14.28 l3.14 0 z M29.28 5.720000000000001 l5.96 9.58 l0.04 0 l0 -9.58 l2.94 0 l0 14.28 l-3.14 0 l-5.94 -9.56 l-0.04 0 l0 9.56 l-2.94 0 l0 -14.28 l3.12 0 z M47.1 5.720000000000001 c2.0266 0 3.62 0.62666 4.78 1.88 s1.74 2.98 1.74 5.18 c0 2.28 -0.58334 4.0534 -1.75 5.32 s-2.73 1.9 -4.69 1.9 l-6.2 0 l0 -14.28 l6.12 0 z M46.9 17.36 c1.1333 0 2.0134 -0.37334 2.64 -1.12 s0.94 -1.8067 0.94 -3.18 c0 -1.5733 -0.33666 -2.75 -1.01 -3.53 s-1.71 -1.17 -3.11 -1.17 l-2.24 0 l0 9 l2.78 0 z M58.94 5.720000000000001 l0 14.28 l-3.14 0 l0 -14.28 l3.14 0 z M63.4 5.720000000000001 l3.18 10.04 l0.04 0 l3.22 -10.04 l3.24 0 l-4.74 14.28 l-3.54 0 l-4.64 -14.28 l3.24 0 z M80.7 5.380000000000001 c2.1066 0 3.8034 0.7 5.09 2.1 s1.93 3.2134 1.93 5.44 c0 2.1734 -0.64666 3.9534 -1.94 5.34 s-2.9866 2.08 -5.08 2.08 c-2.1066 0 -3.8034 -0.69334 -5.09 -2.08 s-1.93 -3.1666 -1.93 -5.34 c0 -2.2134 0.64666 -4.0234 1.94 -5.43 s2.9866 -2.11 5.08 -2.11 z M76.82000000000001 12.92 c0 1.44 0.33998 2.5966 1.02 3.47 s1.6333 1.31 2.86 1.31 c1.2 0 2.1466 -0.43 2.84 -1.29 s1.04 -2.0234 1.04 -3.49 c0 -1.5333 -0.34334 -2.7334 -1.03 -3.6 s-1.6433 -1.3 -2.87 -1.3 c-1.2 0 -2.1434 0.43334 -2.83 1.3 s-1.03 2.0666 -1.03 3.6 z"></path></g></svg>